<?xml version="1.0" encoding="UTF-8" standalone="no"?>
<svg
   xmlns:dc="http://purl.org/dc/elements/1.1/"
   xmlns:cc="http://creativecommons.org/ns#"
   xmlns:rdf="http://www.w3.org/1999/02/22-rdf-syntax-ns#"
   xmlns:svg="http://www.w3.org/2000/svg"
   xmlns="http://www.w3.org/2000/svg"
   id="svg993"
   version="1.1"
   viewBox="0 0 24 24"
   height="24mm"
   width="24mm">
  <defs
     id="defs987">
    <path
       id="path942"
       d="M 3.486483,210.73622 C 3.486484,216.47257 8.136714,221.12281 13.873064,221.12281 C 19.609413,221.12281 24.259644,216.47257 24.259644,210.73622 C 24.259644,204.99987 19.609413,200.34964 13.873064,200.34964 C 8.136714,200.34964 3.486484,204.99987 3.486483,210.73622 Z"
       style="opacity:1;fill:none;fill-opacity:1;stroke:#1a3441;stroke-width:0.24999999;stroke-linecap:butt;stroke-linejoin:miter;stroke-miterlimit:4;stroke-dasharray:none;stroke-dashoffset:0;stroke-opacity:1" />
  </defs>
  <metadata
     id="metadata990">
    <rdf:RDF>
      <cc:Work
         rdf:about="">
        <dc:format>image/svg+xml</dc:format>
        <dc:type
           rdf:resource="http://purl.org/dc/dcmitype/StillImage" />
        <dc:title></dc:title>
      </cc:Work>
    </rdf:RDF>
  </metadata>
  <g
     transform="translate(0,-273)"
     id="layer1">
    <g
       transform="translate(-3.486143,2.84907)"
       id="g1804">
      <g
         id="text957"
         style="font-style:normal;font-weight:normal;font-size:4.94770861px;line-height:1.20000005;font-family:sans-serif;letter-spacing:0px;word-spacing:0px;fill:#385461;fill-opacity:1;stroke:none;stroke-width:1"
         transform="rotate(-5.5689698,752.79196,230.42366)"
         aria-label="aventura">
        <path
           id="path1806"
           style="letter-spacing:0.85989583px;fill:#385461;fill-opacity:1;stroke-width:1"
           d="M 4.9674406,212.22841 Q 4.8895095,211.69534 4.7375416,211.50758 Q 4.5855738,211.31982 4.2915468,211.36281 Q 4.0572813,211.39706 3.9410003,211.57031 Q 3.8274593,211.74561 3.8662501,212.01096 Q 3.9197186,212.3767 4.2100396,212.55888 Q 4.5031006,212.7431 4.9333841,212.68019 L 5.0313931,212.66587 Z M 5.2773703,213.07915 L 3.749864,213.30246 L 3.685562,212.86262 L 4.0919409,212.80321 Q 3.8260971,212.68825 3.6761145,212.48067 Q 3.5285223,212.27274 3.4809948,211.94764 Q 3.4208865,211.53648 3.6147253,211.2591 Q 3.8113041,210.98377 4.1985593,210.92716 Q 4.6503569,210.86111 4.9238743,211.12876 Q 5.1977411,211.3988 5.2854574,211.9988 L 5.3756199,212.61554 L 5.4186482,212.60925 Q 5.7222371,212.56487 5.8578239,212.33996 Q 5.9961506,212.11709 5.943381,211.75613 Q 5.9098322,211.52664 5.82305,211.31715 Q 5.7362678,211.10765 5.5969513,210.92293 L 6.0033301,210.86352 Q 6.1318544,211.09133 6.2104726,211.31178 Q 6.2914812,211.53189 6.3229332,211.74703 Q 6.4078537,212.32791 6.1485914,212.6588 Q 5.889329,212.98969 5.2773703,213.07915 Z" />
        <path
           id="path1808"
           style="letter-spacing:0.85989583px;fill:#385461;fill-opacity:1;stroke-width:1"
           d="M 6.5386484,213.37888 L 6.7713279,213.7885 L 5.2143649,215.64536 L 7.6065878,215.25895 L 7.8392674,215.66857 L 4.9854049,216.12272 L 4.6870978,215.59756 Z" />
        <path
           id="path1810"
           style="letter-spacing:0.85989583px;fill:#385461;fill-opacity:1;stroke-width:1"
           d="M 9.2048094,218.44483 L 9.0672095,218.61318 L 7.4847266,217.31974 Q 7.2166846,217.69349 7.2545916,218.03649 Q 7.2958981,218.37915 7.6382082,218.65894 Q 7.8364862,218.821 8.0614215,218.92373 Q 8.2882273,219.02798 8.551043,219.08055 L 8.2850166,219.40602 Q 8.0356192,219.33322 7.8074467,219.21537 Q 7.5792743,219.09752 7.3791257,218.93393 Q 6.8778191,218.52419 6.8226497,217.99235 Q 6.7693508,217.46203 7.1760349,216.96447 Q 7.596479,216.45007 8.1194708,216.37518 Q 8.6458622,216.29996 9.1172401,216.68524 Q 9.5399837,217.03077 9.5618078,217.50415 Q 9.5870313,217.9772 9.2048094,218.44483 Z M 8.9431887,218.06251 Q 9.1703096,217.777 9.1526541,217.48175 Q 9.1368691,217.18803 8.8824747,216.9801 Q 8.5944104,216.74465 8.2874363,216.76521 Q 7.9823327,216.78729 7.7145808,217.06143 Z" />
        <path
           id="path1812"
           style="letter-spacing:0.85989583px;fill:#385461;fill-opacity:1;stroke-width:1"
           d="M 12.341853,219.43286 L 11.852999,220.99111 L 11.428861,220.85805 L 11.913375,219.31363 Q 12.028357,218.94712 11.94257,218.72018 Q 11.856783,218.49324 11.570951,218.40357 Q 11.227491,218.29582 10.960552,218.45262 Q 10.693614,218.60941 10.575016,218.98745 L 10.117258,220.44657 L 9.6908146,220.31279 L 10.500749,217.73108 L 10.927193,217.86486 L 10.801364,218.26595 Q 11.026539,218.08086 11.267851,218.02997 Q 11.511468,217.9798 11.781165,218.06441 Q 12.226049,218.20398 12.367475,218.55218 Q 12.509625,218.89808 12.341853,219.43286 Z" />
        <path
           id="path1814"
           style="letter-spacing:0.85989583px;fill:#385461;fill-opacity:1;stroke-width:1"
           d="M 13.969093,217.64845 L 13.986675,218.4165 L 14.902051,218.39555 L 14.909957,218.74093 L 13.994581,218.76188 L 14.028196,220.23035 Q 14.03577,220.56123 14.12729,220.65338 Q 14.221225,220.74548 14.498978,220.73912 L 14.955459,220.72867 L 14.963973,221.10062 L 14.507492,221.11107 Q 13.993046,221.12284 13.793044,220.93652 Q 13.592986,220.74778 13.581376,220.24058 L 13.547761,218.77211 L 13.221704,218.77957 L 13.213798,218.43419 L 13.539855,218.42673 L 13.522274,217.65868 Z" />
        <path
           id="path1816"
           style="letter-spacing:0.85989583px;fill:#385461;fill-opacity:1;stroke-width:1"
           d="M 15.994728,219.88575 L 15.432091,218.34746 L 15.849564,218.19476 L 16.406392,219.71718 Q 16.538338,220.07793 16.745396,220.20799 Q 16.951625,220.33578 17.232965,220.23288 Q 17.571028,220.10923 17.687315,219.82232 Q 17.805872,219.53458 17.669777,219.16249 L 17.142823,217.72175 L 17.560296,217.56906 L 18.489726,220.1102 L 18.072253,220.26289 L 17.929519,219.87264 Q 17.862149,220.15967 17.701712,220.34697 Q 17.542713,220.53117 17.277255,220.62826 Q 16.839362,220.78842 16.512892,220.59914 Q 16.186423,220.40986 15.994728,219.88575 Z M 16.460174,217.90198 Z" />
        <path
           id="path1818"
           style="letter-spacing:0.85989583px;fill:#385461;fill-opacity:1;stroke-width:1"
           d="M 19.767037,216.37846 Q 19.681503,216.39202 19.59998,216.43346 Q 19.518804,216.47151 19.436367,216.53862 Q 19.144091,216.77655 19.142279,217.09576 Q 19.140816,217.41159 19.430601,217.76756 L 20.330459,218.87297 L 19.983848,219.15513 L 18.275644,217.05673 L 18.622254,216.77457 L 18.887636,217.10057 Q 18.840735,216.82101 18.940243,216.58736 Q 19.038225,216.35184 19.28741,216.14899 Q 19.323008,216.12001 19.370676,216.09055 Q 19.416818,216.05922 19.476904,216.02589 Z" />
        <path
           id="path1820"
           style="letter-spacing:0.85989583px;fill:#385461;fill-opacity:1;stroke-width:1"
           d="M 21.612483,215.38784 Q 21.325447,215.84375 21.319018,216.08522 Q 21.312588,216.32668 21.564052,216.485 Q 21.764406,216.61114 21.96536,216.55495 Q 22.165558,216.49544 22.308432,216.2685 Q 22.505367,215.95571 22.402987,215.62861 Q 22.299851,215.29818 21.931854,215.06649 L 21.848033,215.01371 Z M 21.929493,214.53972 L 23.235881,215.36221 L 22.999044,215.73838 L 22.651492,215.51957 Q 22.778932,215.77966 22.758116,216.0349 Q 22.735256,216.28886 22.560203,216.5669 Q 22.338812,216.91854 22.011257,217.00351 Q 21.682945,217.08514 21.351749,216.87662 Q 20.965352,216.63335 20.931269,216.25218 Q 20.898473,215.86898 21.221549,215.35583 L 21.553636,214.82836 L 21.516836,214.80519 Q 21.257194,214.64173 21.008008,214.72464 Q 20.758064,214.80423 20.563703,215.11294 Q 20.440136,215.3092 20.370027,215.52485 Q 20.299917,215.7405 20.28584,215.97144 L 19.938288,215.75262 Q 19.988558,215.49594 20.071994,215.27726 Q 20.153385,215.0573 20.269229,214.8733 Q 20.582008,214.3765 20.994064,214.29335 Q 21.40612,214.2102 21.929493,214.53972 Z" />
      </g>
      <g
         style="stroke-width:4.62673998"
         transform="matrix(0.21613491,0,0,0.21613491,-6.2296648,229.29134)"
         id="g2705">
        <path
           style="opacity:1;fill:#1a3441;fill-opacity:1;stroke:#1a3441;stroke-width:1.15668499;stroke-linecap:butt;stroke-linejoin:miter;stroke-miterlimit:4;stroke-dasharray:none;stroke-dashoffset:0;stroke-opacity:1"
           id="path2633"
           d="M 124.45395,220.58704 L 123.15574,222.66352 L 125.27625,221.43856 L 123.90636,223.46846 L 126.06834,222.31825 L 124.62844,224.29911 L 126.82924,223.22506 L 125.32108,225.15446 L 127.55802,224.15787 L 125.98345,226.03346 L 128.25381,225.11554 L 126.61474,226.93503 L 128.91576,226.09691 L 127.21419,227.8581 L 129.54305,227.10079 L 127.78105,228.80151 L 130.13492,228.12594 L 128.31464,229.76414 L 130.69066,229.17113 L 128.81432,230.74481 L 131.20958,230.23508 L 129.27946,231.74231 L 131.69106,231.31649 L 129.70951,232.75544 L 132.1345,232.41404 L 130.10394,233.78296 L 132.53936,233.5264 L 130.46227,234.82362 L 132.90516,234.65221 L 130.78406,235.87615 L 133.23145,235.7901 L 131.06892,236.93928 L 133.51782,236.93869 L 131.31651,238.01169 L 133.76394,238.09657 L 131.52652,239.09209 L 133.96949,239.26234 L 131.69869,240.17917 L 134.13424,240.43457 L 131.83282,241.27159 L 134.25797,241.61183 L 131.92875,242.36802 L 134.34055,242.79269 L 131.98635,243.46714 L 134.38186,243.97572 L 132.00556,244.5676 L 134.38186,245.15947 L 131.98635,245.66805 L 134.34055,246.3425 L 131.92875,246.76717 L 134.25797,247.52336 L 131.83282,247.86361 L 134.13424,248.70063 L 131.69869,248.95603 L 133.96949,249.87286 L 131.52652,250.0431 L 133.76394,251.03862 L 131.31651,251.1235 L 133.51782,252.1965 L 131.06892,252.19592 L 133.23145,253.34509 L 130.78406,253.25904 L 132.90516,254.48298 L 130.46227,254.31157 L 132.53936,255.60879 L 130.10394,255.35223 L 132.1345,256.72115 L 129.70951,256.37975 L 131.69106,257.81871 L 129.27946,257.39288 L 131.20958,258.90011 L 128.81432,258.39039 L 130.69066,259.96406 L 128.31464,259.37105 L 130.13492,261.00925 L 127.78105,260.33368 L 129.54305,262.03441 L 127.21419,261.2771 L 128.91576,263.03828 L 126.61474,262.20016 L 128.25381,264.01965 L 125.98345,263.10174 L 127.55802,264.97733 L 125.32108,263.98073 L 126.82923,265.91013 L 124.62844,264.83608 L 126.06834,266.81694 L 123.90636,265.66673 L 125.27625,267.69663 L 123.15574,266.47168 L 124.45395,268.54815 L 122.37748,267.24994 L 123.60243,269.37045 L 121.57253,268.00056 L 122.72274,270.16254 L 120.74188,268.72264 L 121.81593,270.92344 L 119.88653,269.41528 L 120.88313,271.65222 L 119.00754,270.07765 L 119.92545,272.34801 L 118.10596,270.70894 L 118.94408,273.00996 L 117.1829,271.30839 L 117.94021,273.63725 L 116.23948,271.87525 L 116.91505,274.22912 L 115.27685,272.40884 L 115.86986,274.78486 L 114.29619,272.90852 L 114.80591,275.30378 L 113.29868,273.37366 L 113.72451,275.78526 L 112.28555,273.80371 L 112.62695,276.2287 L 111.25803,274.19814 L 111.51459,276.63356 L 110.21737,274.55647 L 110.38878,276.99936 L 109.16484,274.87826 L 109.25089,277.32565 L 108.10172,275.16312 L 108.1023,277.61202 L 107.0293,275.41071 L 106.94442,277.85814 L 105.9489,275.62072 L 105.77866,278.06369 L 104.86183,275.79289 L 104.60643,278.22844 L 103.7694,275.92702 L 103.42916,278.35217 L 102.67297,276.02295 L 102.2483,278.43475 L 101.57385,276.08055 L 101.06527,278.47606 L 100.4734,276.09976 L 99.881522,278.47606 L 99.37294,276.08055 L 98.698494,278.43475 L 98.273824,276.02295 L 97.517629,278.35217 L 97.177388,275.92702 L 96.340365,278.22844 L 96.084967,275.79289 L 95.168136,278.06369 L 94.997894,275.62072 L 94.002371,277.85814 L 93.917491,275.41071 L 92.84449,277.61202 L 92.845075,275.16312 L 91.695903,277.32565 L 91.781954,274.87826 L 90.558011,276.99936 L 90.729422,274.55647 L 89.432199,276.63356 L 89.688761,274.19814 L 88.319839,276.2287 L 88.66124,273.80371 L 87.222286,275.78526 L 87.64811,273.37366 L 86.140878,275.30378 L 86.650606,272.90852 L 85.076931,274.78486 L 85.669942,272.40884 L 84.031743,274.22912 L 84.707314,271.87525 L 83.006587,273.63725 L 83.763895,271.30839 L 82.002711,273.00996 L 82.840834,270.70894 L 81.021339,272.34801 L 81.939256,270.07765 L 80.063666,271.65222 L 81.060258,269.41528 L 79.130859,270.92344 L 80.204912,268.72264 L 78.224055,270.16254 L 79.374261,268.00056 L 77.344358,269.37045 L 78.569315,267.24994 L 76.49284,268.54815 L 77.791056,266.47168 L 75.670539,267.69663 L 77.040432,265.66673 L 74.878457,266.81694 L 76.318358,264.83608 L 74.117557,265.91013 L 75.625712,263.98073 L 73.388769,264.97733 L 74.96334,263.10174 L 72.692979,264.01965 L 74.332048,262.20016 L 72.031035,263.03828 L 73.732605,261.2771 L 71.403744,262.03441 L 73.165742,260.33368 L 70.811869,261.00925 L 72.632148,259.37105 L 70.256133,259.96406 L 72.132475,258.39039 L 69.737211,258.90011 L 71.667331,257.39288 L 69.255737,257.81871 L 71.237283,256.37975 L 68.812297,256.72115 L 70.842855,255.35223 L 68.407431,255.60879 L 70.484527,254.31157 L 68.041633,254.48298 L 70.162735,253.25904 L 67.715347,253.34509 L 69.877873,252.19592 L 67.428973,252.1965 L 69.630286,251.1235 L 67.182858,251.03862 L 69.420277,250.0431 L 66.977302,249.87286 L 69.248102,248.95603 L 66.812556,248.70063 L 69.113969,247.86361 L 66.68882,247.52336 L 69.018043,246.76717 L 66.606246,246.3425 L 68.960441,245.66805 L 66.564934,245.15947 L 68.941233,244.5676 L 66.564934,243.97572 L 68.960441,243.46714 L 66.606246,242.79269 L 69.018043,242.36802 L 66.68882,241.61183 L 69.113969,241.27159 L 66.812556,240.43456 L 69.248102,240.17917 L 66.977302,239.26234 L 69.420277,239.09209 L 67.182858,238.09657 L 69.630286,238.01169 L 67.428973,236.93869 L 69.877873,236.93928 L 67.715348,235.7901 L 70.162735,235.87615 L 68.041633,234.65221 L 70.484527,234.82362 L 68.407431,233.5264 L 70.842855,233.78296 L 68.812297,232.41404 L 71.237283,232.75544 L 69.255738,231.31649 L 71.667331,231.74231 L 69.737212,230.23508 L 72.132475,230.74481 L 70.256133,229.17113 L 72.632148,229.76414 L 70.811869,228.12594 L 73.165742,228.80151 L 71.403744,227.10079 L 73.732605,227.8581 L 72.031035,226.09691 L 74.332048,226.93503 L 72.692979,225.11554 L 74.96334,226.03346 L 73.388769,224.15787 L 75.625712,225.15446 L 74.117558,223.22506 L 76.318358,224.29911 L 74.878457,222.31825 L 77.040432,223.46846 L 75.670539,221.43856 L 77.791056,222.66352 L 76.49284,220.58704 L 78.569315,221.88526 L 77.344358,219.76474 L 79.374261,221.13463 L 78.224055,218.97266 L 80.204912,220.41256 L 79.130859,218.21176 L 81.060258,219.71991 L 80.063666,217.48297 L 81.939256,219.05754 L 81.021339,216.78718 L 82.840834,218.42625 L 82.002711,216.12524 L 83.763895,217.82681 L 83.006587,215.49794 L 84.707315,217.25994 L 84.031743,214.90607 L 85.669942,216.72635 L 85.076932,214.35033 L 86.650606,216.22668 L 86.140878,213.83141 L 87.64811,215.76153 L 87.222286,213.34994 L 88.66124,215.33148 L 88.319839,212.9065 L 89.688761,214.93705 L 89.432199,212.50163 L 90.729422,214.57873 L 90.558011,212.13583 L 91.781954,214.25694 L 91.695904,211.80955 L 92.845076,213.97207 L 92.84449,211.52317 L 93.917491,213.72449 L 94.002371,211.27706 L 94.997894,213.51448 L 95.168136,211.0715 L 96.084967,213.3423 L 96.340365,210.90676 L 97.177388,213.20817 L 97.517629,210.78302 L 98.273824,213.11224 L 98.698494,210.70045 L 99.37294,213.05464 L 99.881522,210.65913 L 100.4734,213.03543 L 101.06527,210.65913 L 101.57385,213.05464 L 102.2483,210.70045 L 102.67297,213.11224 L 103.42916,210.78302 L 103.7694,213.20817 L 104.60643,210.90676 L 104.86183,213.3423 L 105.77866,211.0715 L 105.9489,213.51448 L 106.94442,211.27706 L 107.0293,213.72449 L 108.1023,211.52317 L 108.10172,213.97207 L 109.25089,211.80955 L 109.16484,214.25694 L 110.38878,212.13583 L 110.21737,214.57873 L 111.51459,212.50163 L 111.25803,214.93705 L 112.62695,212.9065 L 112.28555,215.33148 L 113.72451,213.34994 L 113.29868,215.76153 L 114.80591,213.83141 L 114.29619,216.22668 L 115.86986,214.35033 L 115.27685,216.72635 L 116.91505,214.90607 L 116.23948,217.25994 L 117.94021,215.49794 L 117.1829,217.82681 L 118.94408,216.12524 L 118.10596,218.42625 L 119.92545,216.78718 L 119.00754,219.05754 L 120.88313,217.48297 L 119.88653,219.71991 L 121.81593,218.21176 L 120.74188,220.41256 L 122.72274,218.97266 L 121.57253,221.13463 L 123.60243,219.76474 L 122.37748,221.88526 Z" />
        <ellipse
           style="opacity:1;fill:#ffffff;fill-opacity:1;stroke:#1a3441;stroke-width:1.15668499;stroke-linecap:butt;stroke-linejoin:miter;stroke-miterlimit:4;stroke-dasharray:none;stroke-dashoffset:0;stroke-opacity:1"
           id="ellipse2635"
           cx="100.4734"
           cy="244.56757"
           rx="33.148087"
           ry="33.458153" />
        <ellipse
           ry="32.234455"
           rx="31.935682"
           cy="244.56757"
           cx="100.4734"
           id="ellipse2637"
           style="opacity:1;fill:#ffffff;fill-opacity:1;stroke:#1a3441;stroke-width:1.15668499;stroke-linecap:butt;stroke-linejoin:miter;stroke-miterlimit:4;stroke-dasharray:none;stroke-dashoffset:0;stroke-opacity:1" />
        <g
           id="g2699"
           transform="matrix(2.2410565,0,0,2.2410565,-134.83754,-88.229319)"
           style="display:inline;stroke-width:2.0645349">
          <g
             style="display:inline;stroke-width:2.01018286"
             transform="matrix(1.0270386,0,0,1.0270386,26.948312,5.9539956)"
             id="g2667">
            <g
               style="stroke-width:2.01018286"
               id="g2651">
              <g
                 style="stroke-width:2.01018286"
                 transform="rotate(-180,75.99684,138.79332)"
                 id="g2643">
                <path
                   style="fill:#1a3441;fill-opacity:1;stroke:none;stroke-width:0.20101823;stroke-linecap:butt;stroke-linejoin:miter;stroke-miterlimit:4;stroke-dasharray:none;stroke-opacity:1"
                   d="M 84.041,142.42905 V 138.699 H 98.013955 Z"
                   id="path2639" />
                <path
                   id="path2641"
                   d="M 84.041,134.96878 V 138.69883 H 98.013955 Z"
                   style="fill:#ffffff;fill-opacity:1;stroke:#1a3441;stroke-width:0.20101823;stroke-linecap:butt;stroke-linejoin:miter;stroke-miterlimit:4;stroke-dasharray:none;stroke-opacity:1" />
              </g>
              <g
                 style="stroke-width:2.01018286"
                 id="g2649"
                 transform="translate(4.7249809e-7,-1.7444323e-4)">
                <path
                   id="path2645"
                   d="M 84.041,142.42905 V 138.699 H 98.013955 Z"
                   style="fill:#1a3441;fill-opacity:1;stroke:none;stroke-width:0.20101823;stroke-linecap:butt;stroke-linejoin:miter;stroke-miterlimit:4;stroke-dasharray:none;stroke-opacity:1" />
                <path
                   style="fill:#ffffff;fill-opacity:1;stroke:#1a3441;stroke-width:0.20101823;stroke-linecap:butt;stroke-linejoin:miter;stroke-miterlimit:4;stroke-dasharray:none;stroke-opacity:1"
                   d="M 84.041,134.96878 V 138.69883 H 98.013955 Z"
                   id="path2647" />
              </g>
            </g>
            <g
               style="stroke-width:2.01018286"
               id="g2665"
               transform="rotate(-90,75.99684,138.79323)">
              <g
                 style="stroke-width:2.01018286"
                 id="g2657"
                 transform="rotate(180,75.99684,138.79332)">
                <path
                   id="path2653"
                   d="M 84.041,142.42905 V 138.699 H 98.013955 Z"
                   style="fill:#1a3441;fill-opacity:1;stroke:none;stroke-width:0.20101823;stroke-linecap:butt;stroke-linejoin:miter;stroke-miterlimit:4;stroke-dasharray:none;stroke-opacity:1" />
                <path
                   style="fill:#ffffff;fill-opacity:1;stroke:#1a3441;stroke-width:0.20101823;stroke-linecap:butt;stroke-linejoin:miter;stroke-miterlimit:4;stroke-dasharray:none;stroke-opacity:1"
                   d="M 84.041,134.96878 V 138.69883 H 98.013955 Z"
                   id="path2655" />
              </g>
              <g
                 style="stroke-width:2.01018286"
                 transform="translate(4.7249809e-7,-1.7444323e-4)"
                 id="g2663">
                <path
                   style="fill:#1a3441;fill-opacity:1;stroke:none;stroke-width:0.20101823;stroke-linecap:butt;stroke-linejoin:miter;stroke-miterlimit:4;stroke-dasharray:none;stroke-opacity:1"
                   d="M 84.041,142.42905 V 138.699 H 98.013955 Z"
                   id="path2659" />
                <path
                   id="path2661"
                   d="M 84.041,134.96878 V 138.69883 H 98.013955 Z"
                   style="fill:#ffffff;fill-opacity:1;stroke:#1a3441;stroke-width:0.20101823;stroke-linecap:butt;stroke-linejoin:miter;stroke-miterlimit:4;stroke-dasharray:none;stroke-opacity:1" />
              </g>
            </g>
          </g>
          <g
             style="display:inline;stroke-width:2.56957984"
             transform="matrix(-0.56812667,0.56812667,0.56812667,0.56812667,69.323695,26.472031)"
             id="g2697">
            <g
               style="stroke-width:2.56957984"
               id="g2681">
              <g
                 style="stroke-width:2.56957984"
                 id="g2673"
                 transform="rotate(-180,75.99684,138.79332)">
                <path
                   id="path2669"
                   d="M 84.041,142.42905 V 138.699 H 98.013955 Z"
                   style="fill:#1a3441;fill-opacity:1;stroke:none;stroke-width:0.25695798;stroke-linecap:butt;stroke-linejoin:miter;stroke-miterlimit:4;stroke-dasharray:none;stroke-opacity:1" />
                <path
                   style="fill:#ffffff;fill-opacity:1;stroke:#1a3441;stroke-width:0.25695798;stroke-linecap:butt;stroke-linejoin:miter;stroke-miterlimit:4;stroke-dasharray:none;stroke-opacity:1"
                   d="M 84.041,134.96878 V 138.69883 H 98.013955 Z"
                   id="path2671" />
              </g>
              <g
                 style="stroke-width:2.56957984"
                 transform="translate(4.7249809e-7,-1.7444323e-4)"
                 id="g2679">
                <path
                   style="fill:#1a3441;fill-opacity:1;stroke:none;stroke-width:0.25695798;stroke-linecap:butt;stroke-linejoin:miter;stroke-miterlimit:4;stroke-dasharray:none;stroke-opacity:1"
                   d="M 84.041,142.42905 V 138.699 H 98.013955 Z"
                   id="path2675" />
                <path
                   id="path2677"
                   d="M 84.041,134.96878 V 138.69883 H 98.013955 Z"
                   style="fill:#ffffff;fill-opacity:1;stroke:#1a3441;stroke-width:0.25695798;stroke-linecap:butt;stroke-linejoin:miter;stroke-miterlimit:4;stroke-dasharray:none;stroke-opacity:1" />
              </g>
            </g>
            <g
               style="stroke-width:2.56957984"
               transform="rotate(-90,75.99684,138.79323)"
               id="g2695">
              <g
                 style="stroke-width:2.56957984"
                 transform="rotate(180,75.99684,138.79332)"
                 id="g2687">
                <path
                   style="fill:#1a3441;fill-opacity:1;stroke:none;stroke-width:0.25695798;stroke-linecap:butt;stroke-linejoin:miter;stroke-miterlimit:4;stroke-dasharray:none;stroke-opacity:1"
                   d="M 84.041,142.42905 V 138.699 H 98.013955 Z"
                   id="path2683" />
                <path
                   id="path2685"
                   d="M 84.041,134.96878 V 138.69883 H 98.013955 Z"
                   style="fill:#ffffff;fill-opacity:1;stroke:#1a3441;stroke-width:0.25695798;stroke-linecap:butt;stroke-linejoin:miter;stroke-miterlimit:4;stroke-dasharray:none;stroke-opacity:1" />
              </g>
              <g
                 style="stroke-width:2.56957984"
                 id="g2693"
                 transform="translate(4.7249809e-7,-1.7444323e-4)">
                <path
                   id="path2689"
                   d="M 84.041,142.42905 V 138.699 H 98.013955 Z"
                   style="fill:#1a3441;fill-opacity:1;stroke:none;stroke-width:0.25695798;stroke-linecap:butt;stroke-linejoin:miter;stroke-miterlimit:4;stroke-dasharray:none;stroke-opacity:1" />
                <path
                   style="fill:#ffffff;fill-opacity:1;stroke:#1a3441;stroke-width:0.25695798;stroke-linecap:butt;stroke-linejoin:miter;stroke-miterlimit:4;stroke-dasharray:none;stroke-opacity:1"
                   d="M 84.041,134.96878 V 138.69883 H 98.013955 Z"
                   id="path2691" />
              </g>
            </g>
          </g>
        </g>
        <ellipse
           style="opacity:1;fill:#ffffff;fill-opacity:1;stroke:#1a3441;stroke-width:1.15668499;stroke-linecap:butt;stroke-linejoin:miter;stroke-miterlimit:4;stroke-dasharray:none;stroke-dashoffset:0;stroke-opacity:1"
           id="ellipse2701"
           cx="100.4734"
           cy="244.56757"
           rx="28.439564"
           ry="27.944923" />
      </g>
      <path
         id="path835-8-3"
         d="M 17.855625,276.65679 L 17.446965,278.01909 L 17.038295,279.38138 H 16.907225 C 16.796165,279.38138 16.776165,279.37942 16.776165,279.36852 C 16.776165,279.36144 16.782405,279.3163 16.790035,279.2682 C 16.810835,279.13711 16.810795,278.86068 16.789955,278.77091 C 16.737895,278.54656 16.629795,278.34831 16.446955,278.14183 C 16.225095,277.89132 15.981415,277.74488 15.679895,277.68087 C 15.555515,277.65447 15.307125,277.6545 15.182535,277.68095 C 14.697955,277.7838 14.384385,278.08768 14.294585,278.54146 C 14.271495,278.6582 14.273485,278.89674 14.298525,279.01216 C 14.334165,279.17648 14.393125,279.31355 14.492555,279.46325 C 14.553385,279.55487 14.806615,279.81718 15.574505,280.58401 L 16.193115,281.20178 L 16.303205,281.18758 C 16.462285,281.16706 16.646355,281.1579 16.905375,281.1576 C 17.114355,281.15734 17.133145,281.15611 17.137395,281.14238 C 17.139935,281.13416 17.163715,281.06596 17.190225,280.99083 C 17.279795,280.737 17.310955,280.56819 17.303485,280.37725 C 17.299935,280.28645 17.294755,280.25207 17.276305,280.19678 C 17.234975,280.07294 17.164345,279.99296 17.047485,279.93768 L 16.981545,279.90648 L 16.981305,279.84458 L 16.981085,279.78268 H 18.155075 H 19.329075 V 279.85781 V 279.93294 L 19.241555,279.95239 C 18.986415,280.0091 18.793905,280.10525 18.649645,280.24801 C 18.566585,280.33019 18.526265,280.38902 18.492035,280.47792 C 18.472735,280.52804 18.255555,281.21497 18.230905,281.30386 C 18.221605,281.33741 18.432585,281.38785 18.582195,281.38785 C 18.747495,281.38785 18.875005,281.35105 19.000455,281.26716 C 19.078165,281.21519 19.202855,281.08536 19.256655,281.00044 L 19.297905,280.93533 H 19.365835 H 19.433765 L 19.429075,280.96307 C 19.423925,280.99356 18.851585,282.98668 18.846535,282.99173 C 18.839565,282.99871 18.700775,283.00202 18.691335,282.99544 C 18.683625,282.99008 18.687165,282.95855 18.705915,282.86578 C 18.792745,282.43604 18.766325,282.1303 18.623835,281.91596 C 18.555205,281.81273 18.453535,281.73895 18.321565,281.69661 C 18.241245,281.67084 18.155945,281.65773 18.136475,281.66815 C 18.125615,281.67396 18.111465,281.70765 18.092245,281.77347 C 18.076695,281.82671 17.874395,282.50614 17.642685,283.28333 C 16.935475,285.65543 16.944765,285.62294 16.944795,285.72524 C 16.944805,285.82591 16.966985,285.8819 17.032995,285.94791 C 17.111375,286.02629 17.209115,286.06652 17.370285,286.08672 L 17.454945,286.09732 L 17.457435,286.16315 L 17.459935,286.22899 H 16.259605 H 15.059275 L 15.061765,286.16379 L 15.064265,286.09858 L 15.159285,286.07945 C 15.415445,286.02787 15.579815,285.9378 15.704515,285.78073 C 15.747545,285.72653 15.756255,285.70785 15.798095,285.58008 C 15.936595,285.15716 16.419085,283.57035 16.469465,283.37217 C 16.487515,283.30113 16.488145,283.29175 16.476855,283.26211 C 16.461065,283.22061 16.442855,283.20853 16.415165,283.22114 C 16.403725,283.22636 16.354125,283.27996 16.304945,283.34024 C 16.124455,283.56148 15.902885,283.73654 15.630105,283.87344 C 15.289615,284.0443 14.951465,284.123 14.499515,284.13658 C 14.372055,284.14042 14.263825,284.14599 14.259005,284.14896 C 14.240915,284.16013 14.181005,284.46596 14.145075,284.73054 C 14.127225,284.86199 14.125365,284.90793 14.125395,285.21721 C 14.125435,285.53541 14.126795,285.56662 14.145225,285.67401 C 14.227135,286.15101 14.391885,286.49368 14.674995,286.77589 C 14.779115,286.87968 14.827545,286.91933 14.953265,287.00366 C 15.234035,287.19202 15.604935,287.31744 15.968965,287.3471 C 16.216255,287.36726 16.536025,287.30795 16.846765,287.18431 C 17.013125,287.11811 17.180535,287.02372 17.364885,286.89216 C 17.469205,286.81773 17.724915,286.57615 17.802185,286.47905 L 17.844895,286.42536 H 17.939075 H 18.033235 L 18.018095,286.44884 C 17.983015,286.50323 17.848995,286.65926 17.749605,286.76144 C 17.490285,287.02802 17.272845,287.18648 16.931615,287.35749 C 16.672845,287.4872 16.449115,287.55919 16.139875,287.61227 C 15.977645,287.64011 15.826335,287.6488 15.589365,287.64384 C 15.407795,287.64005 15.350415,287.63562 15.243875,287.61715 C 14.673325,287.51822 14.129015,287.26471 13.722675,286.90862 C 13.463905,286.68188 13.280105,286.45844 13.128345,286.18612 C 12.955235,285.87549 12.846325,285.55154 12.786815,285.17026 C 12.769725,285.06075 12.767495,285.01488 12.767495,284.77323 C 12.767495,284.46585 12.773145,284.40405 12.823695,284.15849 C 12.859305,283.98547 12.864415,283.91968 12.845105,283.88271 C 12.803175,283.80245 12.686035,283.7561 12.502815,283.74725 C 12.257355,283.73539 12.058055,283.79845 11.913455,283.9337 C 11.863435,283.9805 11.792125,284.07568 11.778645,284.11366 C 11.773945,284.12689 11.760155,284.1286 11.658315,284.1286 C 11.595045,284.1286 11.541705,284.12572 11.539775,284.12219 C 11.535765,284.11489 11.519985,284.16794 11.900925,282.90765 L 12.188685,281.95564 L 12.306255,281.95327 C 12.415505,281.95104 12.423515,281.95195 12.419495,281.96606 C 12.417115,281.97443 12.399295,282.03313 12.379905,282.09652 C 12.292605,282.38195 12.265315,282.53115 12.265125,282.72407 C 12.264985,282.85993 12.266465,282.8736 12.288255,282.93752 C 12.393045,283.24502 12.623365,283.50167 12.860145,283.57482 C 12.911115,283.59056 12.923195,283.59155 12.954065,283.58244 C 13.004195,283.56766 13.024335,283.54578 13.068305,283.45836 C 13.210965,283.17472 13.375055,282.94244 13.623545,282.67237 C 13.910785,282.36019 14.227785,282.09178 14.690735,281.76877 C 14.827895,281.67308 14.845565,281.65812 14.838045,281.64408 C 14.823155,281.61626 14.703485,281.49124 14.167785,280.94387 C 13.551605,280.31426 13.526945,280.28803 13.454815,280.18588 C 13.278975,279.93682 13.169975,279.69201 13.108015,279.407 C 13.085145,279.30182 13.084755,278.90721 13.107405,278.80183 C 13.160315,278.55578 13.281715,278.2744 13.409915,278.10065 C 13.472985,278.01519 13.635295,277.85569 13.741805,277.77452 C 14.010675,277.56961 14.318695,277.43822 14.680045,277.37431 C 14.810435,277.35125 15.160585,277.34169 15.308385,277.35716 C 15.559515,277.38346 15.655795,277.41024 16.110185,277.5801 C 16.258115,277.6354 16.402355,277.68823 16.430725,277.6975 C 16.547895,277.73578 16.765235,277.72882 16.883905,277.68299 C 17.101045,277.59912 17.249015,277.44011 17.352335,277.17962 C 17.399905,277.05969 17.441855,276.8809 17.464375,276.70204 L 17.470085,276.65672 Z M 14.709925,283.80658 C 14.952205,283.71653 15.108135,283.55133 15.221975,283.26411 C 15.284005,283.10762 15.292865,283.05526 15.293065,282.84361 C 15.293265,282.65258 15.280085,282.54232 15.248445,282.47022 C 15.213375,282.3903 15.222905,282.38628 15.079285,282.54173 C 14.918485,282.71578 14.858915,282.78724 14.752105,282.93423 C 14.567745,283.18796 14.415675,283.48387 14.345815,283.72482 L 14.324215,283.79936 L 14.343975,283.81536 C 14.362015,283.82998 14.376605,283.83104 14.513345,283.8277 C 14.636845,283.82467 14.671165,283.82098 14.709925,283.80658 Z M 16.747275,282.34413 C 16.774665,282.26959 16.957395,281.70183 16.984575,281.6068 C 17.004055,281.53866 17.004985,281.52886 16.994015,281.50763 C 16.971805,281.46468 16.929875,281.4518 16.814585,281.45256 C 16.731925,281.45309 16.697075,281.45744 16.634195,281.47514 C 16.537235,281.50241 16.498895,281.52035 16.476265,281.54902 C 16.453325,281.57809 16.458745,281.62242 16.494895,281.70138 C 16.548635,281.81882 16.566565,281.87909 16.626335,282.14348 C 16.647565,282.23739 16.669235,282.32962 16.674485,282.34839 C 16.695125,282.42232 16.719055,282.42091 16.747275,282.34413 Z"
         style="display:inline;fill:#ced8dd;fill-opacity:1;stroke-width:1" />
      <flowRoot
         transform="matrix(0.48426635,0,0,0.48426635,-8.8819548,364.08343)"
         style="font-style:normal;font-weight:normal;font-size:18.70000076px;line-height:1.20000005;font-family:sans-serif;letter-spacing:0px;word-spacing:0px;fill:#0f242d;fill-opacity:1;stroke:#ffffff;stroke-width:1.03248966;stroke-miterlimit:4;stroke-dasharray:none;stroke-opacity:1"
         id="flowRoot985"
         xml:space="preserve"><flowRegion
           style="fill:#0f242d;fill-opacity:1;stroke:#ffffff;stroke-width:1.03248966;stroke-miterlimit:4;stroke-dasharray:none;stroke-opacity:1"
           id="flowRegion981"><rect
             style="fill:#0f242d;fill-opacity:1;stroke:#ffffff;stroke-width:1.03248966;stroke-miterlimit:4;stroke-dasharray:none;stroke-opacity:1"
             y="-179.33473"
             x="39.183674"
             height="164.08163"
             width="212.2449"
             id="rect979" /></flowRegion><flowPara
           style="font-style:normal;font-variant:normal;font-weight:bold;font-stretch:normal;font-size:16.02653503px;font-family:sans-serif;-inkscape-font-specification:'sans-serif Bold';fill:#0f242d;fill-opacity:1;stroke:#ffffff;stroke-width:1.03248966;stroke-miterlimit:4;stroke-dasharray:none;stroke-opacity:1"
           id="flowPara983">91</flowPara></flowRoot>      <g
         id="flowRoot934"
         style="font-style:normal;font-weight:normal;font-size:18.70000076px;line-height:1.20000005;font-family:sans-serif;letter-spacing:0px;word-spacing:0px;fill:#0f242d;fill-opacity:1;stroke:none;stroke-width:0.54635912"
         transform="matrix(0.48426635,0,0,0.48426635,-8.8819548,364.08343)"
         aria-label="91">
        <path
           id="path1823"
           style="font-style:normal;font-variant:normal;font-weight:bold;font-stretch:normal;font-size:16.02653503px;font-family:sans-serif;-inkscape-font-specification:'sans-serif Bold';fill:#0f242d;fill-opacity:1;stroke-width:0.54635912"
           d="M 40.787812,-163.51461 V -165.67443 Q 41.507754,-165.33794 42.165093,-165.16578 Q 42.822431,-165.00144 43.464118,-165.00144 Q 44.810097,-165.00144 45.561341,-165.74486 Q 46.312585,-166.49611 46.445617,-167.96729 Q 45.913486,-167.57602 45.310926,-167.38038 Q 44.708366,-167.18475 44.004075,-167.18475 Q 42.212045,-167.18475 41.108656,-168.22553 Q 40.013092,-169.27414 40.013092,-170.98009 Q 40.013092,-172.86603 41.233863,-174.00072 Q 42.46246,-175.13541 44.520555,-175.13541 Q 46.805588,-175.13541 48.057661,-173.59379 Q 49.309735,-172.05218 49.309735,-169.23501 Q 49.309735,-166.3396 47.846374,-164.6806 Q 46.383014,-163.02943 43.831915,-163.02943 Q 43.010242,-163.02943 42.258998,-163.15464 Q 41.507754,-163.27202 40.787812,-163.51461 Z M 44.504904,-169.14111 Q 45.295275,-169.14111 45.694374,-169.64976 Q 46.093472,-170.16624 46.093472,-171.19138 Q 46.093472,-172.20869 45.694374,-172.72517 Q 45.295275,-173.24165 44.504904,-173.24165 Q 43.714533,-173.24165 43.315435,-172.72517 Q 42.916337,-172.20869 42.916337,-171.19138 Q 42.916337,-170.16624 43.315435,-169.64976 Q 43.714533,-169.14111 44.504904,-169.14111 Z" />
        <path
           id="path1825"
           style="font-style:normal;font-variant:normal;font-weight:bold;font-stretch:normal;font-size:16.02653503px;font-family:sans-serif;-inkscape-font-specification:'sans-serif Bold';fill:#0f242d;fill-opacity:1;stroke-width:0.54635912"
           d="M 52.205153,-165.33794 H 54.865808 V -172.8895 L 52.134724,-172.32607 V -174.37634 L 54.850157,-174.93977 H 57.714275 V -165.33794 H 60.37493 V -163.25637 H 52.205153 Z" />
      </g>
    </g>
  </g>
</svg>
